<?xml version="1.0" encoding="UTF-8"?>
<svg width="700pt" height="700pt" version="1.1" viewBox="0 0 700 700" xmlns="http://www.w3.org/2000/svg" fill='#b4cbea'>
 <g>
  <path d="m597.33 307.69c-28.172-53.059-72.453-95.812-126.46-122.11l42.777-71.246-28.465-17.109-45.422 75.602-0.003906-0.003907c-23.68-7.6133-48.262-12.059-73.109-13.219v-70.469h-33.289v70.469c-24.848 1.1602-49.43 5.6055-73.109 13.219l-45.426-75.598-28.309 17.109 42.777 71.246c-54.07 26.27-98.41 69.027-126.62 122.11-2.1094 4.4844-2.1094 9.6719 0 14.156 23.551 45.168 59.098 82.973 102.73 109.26 43.629 26.289 93.664 40.047 144.6 39.762 50.922 0.29687 100.95-13.438 144.57-39.695 43.629-26.262 79.184-64.035 102.76-109.17 2.1562-4.5273 2.1562-9.7852 0-14.312zm-247.33 129.89c-43.266 0.32422-85.836-10.875-123.34-32.441-37.508-21.57-68.598-52.734-90.078-90.293 21.68-37.395 52.809-68.43 90.27-90 37.457-21.566 79.93-32.91 123.15-32.887 43.266-0.32422 85.836 10.871 123.34 32.441 37.508 21.57 68.598 52.73 90.078 90.289-21.68 37.395-52.809 68.434-90.27 90-37.457 21.57-79.93 32.91-123.15 32.891z"/>
  <path d="m350 231.78c-21.988 0-43.078 8.7344-58.629 24.285-15.547 15.547-24.281 36.637-24.281 58.625 0 21.992 8.7344 43.078 24.281 58.629 15.551 15.547 36.641 24.285 58.629 24.285s43.078-8.7383 58.629-24.285c15.547-15.551 24.281-36.637 24.281-58.629-0.039062-21.977-8.7891-43.039-24.328-58.582-15.539-15.539-36.605-24.285-58.582-24.328zm0 132.69c-13.203 0-25.863-5.2422-35.199-14.578-9.3359-9.3359-14.578-21.996-14.578-35.199 0-13.199 5.2422-25.863 14.578-35.195 9.3359-9.3359 21.996-14.582 35.199-14.582s25.863 5.2461 35.199 14.582c9.3359 9.332 14.578 21.996 14.578 35.195 0.042968 13.23-5.1836 25.93-14.523 35.301-9.3398 9.3672-22.023 14.633-35.254 14.633z"/>
 </g>
</svg>
