<?xml version="1.0" standalone="no"?>
<!DOCTYPE svg PUBLIC "-//W3C//DTD SVG 20010904//EN"
 "http://www.w3.org/TR/2001/REC-SVG-20010904/DTD/svg10.dtd">
<svg version="1.0" xmlns="http://www.w3.org/2000/svg"
 width="980.000000pt" height="866.000000pt" viewBox="0 0 980.000000 866.000000"
 preserveAspectRatio="xMidYMid meet">

<g transform="translate(0.000000,866.000000) scale(0.100000,-0.100000)"
fill='#b4cbea' stroke="none">
<path d="M5505 8640 c-225 -36 -530 -224 -709 -439 -80 -96 -121 -161 -178
-281 -27 -57 -57 -106 -76 -122 -19 -15 -79 -41 -147 -63 -230 -74 -393 -173
-566 -345 -545 -541 -561 -1387 -36 -1937 123 -128 236 -212 392 -288 208
-103 388 -145 620 -145 158 0 287 20 422 65 432 145 751 472 907 934 44 130
66 153 201 220 57 28 139 77 182 109 93 70 249 230 316 325 332 467 279 1161
-121 1588 -186 198 -403 320 -650 365 -103 19 -466 28 -557 14z m465 -610
c220 -74 379 -228 447 -434 23 -71 27 -97 27 -211 0 -115 -3 -138 -25 -201
-52 -144 -196 -344 -248 -344 -26 0 -59 45 -109 151 -58 121 -144 233 -296
385 -157 157 -268 242 -396 301 -52 25 -103 52 -112 60 -35 31 -22 63 50 133
80 77 219 152 322 175 92 21 255 13 340 -15z m-998 -855 c144 -31 251 -98 393
-247 101 -106 155 -191 188 -293 32 -102 32 -325 -1 -439 -130 -451 -596 -689
-1024 -525 -255 98 -451 331 -498 588 -16 91 -14 244 5 331 22 96 79 218 140
299 106 140 294 254 476 290 73 15 242 12 321 -4z"/>
<path d="M6810 4635 c-41 -8 -473 -152 -959 -320 -487 -168 -889 -305 -895
-305 -5 0 -125 46 -265 101 -539 214 -738 266 -1061 276 -380 12 -628 -33
-955 -172 -155 -66 -543 -257 -871 -428 -516 -268 -1213 -612 -1404 -692 -123
-52 -260 -125 -301 -162 -83 -75 -117 -193 -84 -292 20 -63 103 -156 160 -182
165 -75 565 89 1812 742 612 321 894 456 1081 519 143 48 217 60 388 67 363
13 563 -42 1289 -360 461 -201 776 -324 1133 -441 368 -120 415 -148 478 -280
44 -92 44 -126 -4 -218 -83 -163 -196 -185 -702 -139 -292 26 -422 37 -780 61
-447 31 -597 52 -880 122 -91 22 -200 43 -242 45 -70 5 -82 3 -140 -24 -71
-34 -110 -69 -141 -128 -18 -33 -21 -58 -22 -140 0 -113 17 -160 77 -210 193
-163 1022 -285 2213 -325 331 -11 561 -3 647 23 64 20 189 88 270 149 118 87
181 168 279 358 31 60 38 66 84 82 1499 518 1717 588 1836 588 71 0 171 -30
231 -70 141 -93 156 -281 34 -417 -78 -86 -397 -262 -1131 -624 -1634 -804
-2368 -1124 -2778 -1210 -152 -32 -309 -30 -450 5 -238 60 -401 135 -1312 604
-729 375 -721 372 -970 372 -219 0 -274 -12 -428 -90 -221 -112 -429 -269
-642 -484 -152 -153 -206 -231 -226 -324 -38 -184 118 -367 297 -349 97 10
135 35 298 199 260 263 513 438 658 455 75 9 153 -23 513 -208 546 -281 1112
-562 1245 -618 291 -123 478 -167 751 -178 432 -17 829 109 1862 591 1166 544
2350 1137 2598 1301 139 93 278 274 339 442 148 410 9 831 -346 1048 -173 105
-177 109 -228 234 -58 137 -162 269 -307 385 -99 78 -199 129 -315 158 -81 21
-112 23 -351 23 l-261 0 -49 75 c-89 136 -262 272 -416 329 -101 37 -216 51
-406 50 -102 0 -208 -7 -251 -14z m410 -595 c76 -25 120 -54 105 -69 -13 -13
-901 -320 -1045 -362 -137 -39 -216 -46 -300 -25 -111 29 -161 47 -157 59 5
18 209 97 531 206 238 81 588 191 681 215 36 9 118 -2 185 -24z m1209 -465
c76 -35 90 -49 60 -65 -31 -17 -535 -191 -1102 -381 -455 -153 -479 -160 -492
-143 -15 20 -65 138 -65 153 0 26 713 272 1255 432 160 48 244 49 344 4z"/>
</g>
</svg>
