<?xml version="1.0" encoding="UTF-8"?>
<svg width="700pt" height="700pt" version="1.1" viewBox="0 0 700 700" xmlns="http://www.w3.org/2000/svg" xmlns:xlink="http://www.w3.org/1999/xlink" fill='#b4cbea'>
 <defs>
  <symbol id="u" overflow="visible">
   <path d="m1.0938-0.0625c-0.054688 0.03125-0.10938 0.054688-0.17188 0.0625s-0.125 0.015625-0.1875 0.015625c-0.19922 0-0.35938-0.050781-0.48438-0.15625-0.11719-0.11328-0.17188-0.26562-0.17188-0.45312 0-0.19531 0.054687-0.34766 0.17188-0.45312 0.125-0.11328 0.28516-0.17188 0.48438-0.17188 0.0625 0 0.125 0.011719 0.1875 0.03125 0.0625 0.011719 0.11719 0.03125 0.17188 0.0625v0.25c-0.054688-0.039062-0.10938-0.070312-0.17188-0.09375-0.054687-0.019531-0.10938-0.03125-0.17188-0.03125-0.10547 0-0.1875 0.039062-0.25 0.10938-0.0625 0.074219-0.09375 0.17188-0.09375 0.29688s0.03125 0.22656 0.09375 0.29688c0.0625 0.0625 0.14453 0.09375 0.25 0.09375 0.0625 0 0.11719-0.003906 0.17188-0.015625 0.0625-0.019531 0.11719-0.050781 0.17188-0.09375z"/>
  </symbol>
  <symbol id="b" overflow="visible">
   <path d="m0.79688-0.65625c-0.023437-0.007812-0.046875-0.015625-0.078125-0.015625-0.023438-0.007813-0.042969-0.015625-0.0625-0.015625-0.074219 0-0.13281 0.027344-0.17188 0.078125-0.042969 0.042969-0.0625 0.10938-0.0625 0.20312v0.40625h-0.28125v-0.89062h0.28125v0.14062c0.039063-0.0625 0.082031-0.10156 0.125-0.125 0.050781-0.03125 0.10938-0.046875 0.17188-0.046875h0.03125c0.007812 0 0.023438 0.007813 0.046875 0.015625z"/>
  </symbol>
  <symbol id="a" overflow="visible">
   <path d="m1.0312-0.45312v0.078125h-0.67188c0.007813 0.074219 0.035156 0.125 0.078125 0.15625 0.039062 0.03125 0.097656 0.046875 0.17188 0.046875 0.0625 0 0.125-0.003906 0.1875-0.015625 0.0625-0.019531 0.125-0.050781 0.1875-0.09375v0.23438c-0.0625 0.023438-0.13281 0.039062-0.20312 0.046875-0.0625 0.0078125-0.13281 0.015625-0.20312 0.015625-0.15625 0-0.28125-0.035156-0.375-0.10938-0.085937-0.082031-0.125-0.20312-0.125-0.35938 0-0.14453 0.039063-0.25781 0.125-0.34375 0.082031-0.082031 0.20312-0.125 0.35938-0.125 0.14453 0 0.25781 0.042969 0.34375 0.125 0.082031 0.085937 0.125 0.19922 0.125 0.34375zm-0.29688-0.09375c0-0.050781-0.015625-0.09375-0.046875-0.125-0.03125-0.039063-0.074219-0.0625-0.125-0.0625-0.054688 0-0.10156 0.015625-0.14062 0.046875-0.03125 0.03125-0.054687 0.078125-0.0625 0.14062z"/>
  </symbol>
  <symbol id="k" overflow="visible">
   <path d="m0.54688-0.40625c-0.0625 0-0.10938 0.011719-0.14062 0.03125-0.03125 0.023438-0.046875 0.054688-0.046875 0.09375 0 0.03125 0.007813 0.058594 0.03125 0.078125 0.03125 0.023437 0.066406 0.03125 0.10938 0.03125 0.050781 0 0.09375-0.015625 0.125-0.046875 0.039062-0.039062 0.0625-0.09375 0.0625-0.15625v-0.03125zm0.4375-0.10938v0.51562h-0.29688v-0.14062c-0.042969 0.0625-0.089844 0.10547-0.14062 0.125-0.042969 0.019531-0.09375 0.03125-0.15625 0.03125-0.09375 0-0.17188-0.023438-0.23438-0.078125-0.054688-0.050781-0.078125-0.11719-0.078125-0.20312 0-0.10156 0.03125-0.17969 0.09375-0.23438 0.070313-0.050781 0.1875-0.078125 0.34375-0.078125h0.17188v-0.015625c0-0.050781-0.023438-0.085938-0.0625-0.10938-0.03125-0.019531-0.085938-0.03125-0.15625-0.03125-0.0625 0-0.12109 0.011719-0.17188 0.03125-0.054687 0.011719-0.10156 0.027344-0.14062 0.046875v-0.21875c0.050781-0.007812 0.10938-0.019531 0.17188-0.03125 0.0625-0.007812 0.125-0.015625 0.1875-0.015625 0.16406 0 0.28516 0.03125 0.35938 0.09375 0.070312 0.0625 0.10938 0.16797 0.10938 0.3125z"/>
  </symbol>
  <symbol id="c" overflow="visible">
   <path d="m0.45312-1.1562v0.26562h0.29688v0.20312h-0.29688v0.375c0 0.042969 0.003906 0.074219 0.015625 0.09375 0.019531 0.011719 0.054688 0.015625 0.10938 0.015625h0.14062v0.20312h-0.25c-0.10547 0-0.18359-0.019531-0.23438-0.0625-0.042969-0.050781-0.0625-0.13281-0.0625-0.25v-0.375h-0.15625v-0.20312h0.15625v-0.26562z"/>
  </symbol>
  <symbol id="j" overflow="visible">
   <path d="m0.75-0.76562v-0.48438h0.28125v1.25h-0.28125v-0.125c-0.042969 0.054688-0.089844 0.089844-0.14062 0.10938-0.042969 0.019531-0.09375 0.03125-0.15625 0.03125-0.11719 0-0.21094-0.039062-0.28125-0.125-0.0625-0.082031-0.09375-0.19531-0.09375-0.34375 0-0.13281 0.03125-0.24219 0.09375-0.32812 0.070313-0.09375 0.16406-0.14062 0.28125-0.14062 0.0625 0 0.11328 0.015625 0.15625 0.046875 0.050781 0.023438 0.097656 0.058594 0.14062 0.10938zm-0.1875 0.57812c0.0625 0 0.10938-0.019531 0.14062-0.0625 0.03125-0.039062 0.046875-0.10938 0.046875-0.20312 0-0.082031-0.015625-0.14453-0.046875-0.1875-0.03125-0.039063-0.078125-0.0625-0.14062-0.0625s-0.10938 0.023437-0.14062 0.0625c-0.03125 0.042969-0.046875 0.10547-0.046875 0.1875 0 0.09375 0.015625 0.16406 0.046875 0.20312 0.03125 0.042969 0.078125 0.0625 0.14062 0.0625z"/>
  </symbol>
  <symbol id="i" overflow="visible">
   <path d="m0.60938-0.1875c0.0625 0 0.10938-0.019531 0.14062-0.0625 0.03125-0.039062 0.046875-0.10938 0.046875-0.20312 0-0.082031-0.015625-0.14453-0.046875-0.1875-0.03125-0.039063-0.078125-0.0625-0.14062-0.0625s-0.10938 0.023437-0.14062 0.0625c-0.03125 0.042969-0.046875 0.10547-0.046875 0.1875 0 0.085937 0.015625 0.15234 0.046875 0.20312 0.03125 0.042969 0.078125 0.0625 0.14062 0.0625zm-0.1875-0.57812c0.039063-0.050781 0.082031-0.085937 0.125-0.10938 0.050781-0.03125 0.10938-0.046875 0.17188-0.046875 0.11328 0 0.20312 0.046875 0.26562 0.14062 0.070313 0.085938 0.10938 0.19531 0.10938 0.32812 0 0.14844-0.039062 0.26172-0.10938 0.34375-0.0625 0.085938-0.15234 0.125-0.26562 0.125-0.0625 0-0.12109-0.011719-0.17188-0.03125-0.042969-0.019531-0.085937-0.054688-0.125-0.10938v0.125h-0.28125v-1.25h0.28125z"/>
  </symbol>
  <symbol id="h" overflow="visible">
   <path d="m0.015625-0.89062h0.29688l0.23438 0.60938 0.20312-0.60938h0.29688l-0.39062 0.96875c-0.03125 0.10156-0.074219 0.17578-0.125 0.21875-0.054688 0.039063-0.12109 0.0625-0.20312 0.0625h-0.15625v-0.1875h0.078125c0.050781 0 0.085938-0.011719 0.10938-0.03125 0.019531-0.011719 0.035156-0.039063 0.046875-0.078125l0.015625-0.03125z"/>
  </symbol>
  <symbol id="e" overflow="visible">
   <path d="m0.875-0.21875h-0.48438l-0.078125 0.21875h-0.29688l0.4375-1.2031h0.35938l0.45312 1.2031h-0.3125zm-0.40625-0.21875h0.32812l-0.15625-0.48438z"/>
  </symbol>
  <symbol id="g" overflow="visible">
   <path d="m0.96875-0.75c0.039062-0.050781 0.082031-0.09375 0.125-0.125 0.050781-0.03125 0.10938-0.046875 0.17188-0.046875 0.10156 0 0.17969 0.03125 0.23438 0.09375 0.050781 0.0625 0.078125 0.15625 0.078125 0.28125v0.54688h-0.28125v-0.46875-0.015625-0.03125c0-0.0625-0.011719-0.10938-0.03125-0.14062-0.023437-0.03125-0.054687-0.046875-0.09375-0.046875-0.054687 0-0.09375 0.027344-0.125 0.078125-0.03125 0.042969-0.046875 0.10547-0.046875 0.1875v0.4375h-0.28125v-0.46875c0-0.09375-0.011719-0.15625-0.03125-0.1875-0.023438-0.03125-0.054688-0.046875-0.09375-0.046875-0.054688 0-0.09375 0.027344-0.125 0.078125-0.03125 0.042969-0.046875 0.10547-0.046875 0.1875v0.4375h-0.28125v-0.89062h0.28125v0.125c0.039063-0.050781 0.082031-0.085937 0.125-0.10938 0.039063-0.03125 0.09375-0.046875 0.15625-0.046875s0.11328 0.015625 0.15625 0.046875c0.050781 0.03125 0.085937 0.074219 0.10938 0.125z"/>
  </symbol>
  <symbol id="f" overflow="visible">
   <path d="m0.14062-0.89062h0.28125v0.89062h-0.28125zm0-0.35938h0.28125v0.23438h-0.28125z"/>
  </symbol>
  <symbol id="t" overflow="visible">
   <path d="m0.14062-1.25h0.28125v1.25h-0.28125z"/>
  </symbol>
  <symbol id="s" overflow="visible">
   <path d="m0.73438-1.25v0.1875h-0.17188c-0.03125 0-0.058594 0.011719-0.078125 0.03125-0.023437 0.011719-0.03125 0.039062-0.03125 0.078125v0.0625h0.25v0.20312h-0.25v0.6875h-0.28125v-0.6875h-0.14062v-0.20312h0.14062v-0.0625c0-0.10156 0.023437-0.17578 0.078125-0.21875 0.0625-0.050781 0.14844-0.078125 0.26562-0.078125z"/>
  </symbol>
  <symbol id="d" overflow="visible">
   <path d="m0.5625-0.71875c-0.0625 0-0.10938 0.027344-0.14062 0.078125-0.03125 0.042969-0.046875 0.10547-0.046875 0.1875 0 0.09375 0.015625 0.16406 0.046875 0.20312 0.03125 0.042969 0.078125 0.0625 0.14062 0.0625s0.10938-0.019531 0.14062-0.0625c0.039063-0.039062 0.0625-0.10938 0.0625-0.20312 0-0.082031-0.023437-0.14453-0.0625-0.1875-0.03125-0.050781-0.078125-0.078125-0.14062-0.078125zm0-0.20312c0.15625 0 0.27344 0.042969 0.35938 0.125 0.09375 0.085937 0.14062 0.19922 0.14062 0.34375 0 0.14844-0.046875 0.26172-0.14062 0.34375-0.085937 0.085938-0.20312 0.125-0.35938 0.125s-0.27734-0.039062-0.35938-0.125c-0.085937-0.082031-0.125-0.19531-0.125-0.34375 0-0.14453 0.039063-0.25781 0.125-0.34375 0.082031-0.082031 0.20312-0.125 0.35938-0.125z"/>
  </symbol>
  <symbol id="r" overflow="visible">
   <path d="m1.0469-0.54688v0.54688h-0.29688v-0.42188c0-0.070313-0.007812-0.125-0.015625-0.15625v-0.0625c-0.011719-0.019531-0.027344-0.035156-0.046875-0.046875-0.023438-0.007812-0.046875-0.015625-0.078125-0.015625-0.054687 0-0.10156 0.027344-0.14062 0.078125-0.03125 0.042969-0.046875 0.10547-0.046875 0.1875v0.4375h-0.28125v-1.25h0.28125v0.48438c0.039063-0.050781 0.085937-0.085937 0.14062-0.10938 0.050781-0.03125 0.10156-0.046875 0.15625-0.046875 0.10156 0 0.17969 0.03125 0.23438 0.09375 0.0625 0.0625 0.09375 0.15625 0.09375 0.28125z"/>
  </symbol>
  <symbol id="q" overflow="visible">
   <path d="m0.15625-1.2031h0.34375l0.4375 0.82812v-0.82812h0.28125v1.2031h-0.34375l-0.4375-0.82812v0.82812h-0.28125z"/>
  </symbol>
  <symbol id="p" overflow="visible">
   <path d="m0.125-0.34375v-0.54688h0.29688v0.078125 0.1875 0.14062 0.15625c0 0.03125 0.003906 0.058594 0.015625 0.078125 0.007812 0.023438 0.023438 0.039062 0.046875 0.046875 0.019531 0.011719 0.039063 0.015625 0.0625 0.015625 0.0625 0 0.10938-0.019531 0.14062-0.0625 0.039062-0.050781 0.0625-0.11719 0.0625-0.20312v-0.4375h0.28125v0.89062h-0.28125v-0.125c-0.054688 0.054688-0.10547 0.089844-0.15625 0.10938-0.042969 0.019531-0.089844 0.03125-0.14062 0.03125-0.10547 0-0.1875-0.03125-0.25-0.09375-0.054687-0.0625-0.078125-0.14844-0.078125-0.26562z"/>
  </symbol>
  <symbol id="o" overflow="visible">
   <path d="m1.0469-0.54688v0.54688h-0.29688v-0.42188c0-0.070313-0.007812-0.125-0.015625-0.15625v-0.0625c-0.011719-0.019531-0.027344-0.035156-0.046875-0.046875-0.023438-0.007812-0.046875-0.015625-0.078125-0.015625-0.054687 0-0.10156 0.027344-0.14062 0.078125-0.03125 0.042969-0.046875 0.10547-0.046875 0.1875v0.4375h-0.28125v-0.89062h0.28125v0.125c0.039063-0.050781 0.085937-0.085937 0.14062-0.10938 0.050781-0.03125 0.10156-0.046875 0.15625-0.046875 0.10156 0 0.17969 0.03125 0.23438 0.09375 0.0625 0.0625 0.09375 0.15625 0.09375 0.28125z"/>
  </symbol>
  <symbol id="n" overflow="visible">
   <path d="m0.15625-1.2031h0.5c0.15625 0 0.27344 0.039063 0.35938 0.10938 0.082031 0.0625 0.125 0.15625 0.125 0.28125s-0.042969 0.22656-0.125 0.29688c-0.085937 0.0625-0.20312 0.09375-0.35938 0.09375h-0.20312v0.42188h-0.29688zm0.29688 0.23438v0.32812h0.17188c0.0625 0 0.10938-0.007813 0.14062-0.03125 0.03125-0.03125 0.046875-0.078125 0.046875-0.14062 0-0.050781-0.015625-0.085938-0.046875-0.10938-0.03125-0.03125-0.078125-0.046875-0.14062-0.046875z"/>
  </symbol>
  <symbol id="m" overflow="visible">
   <path d="m0.14062-0.89062h0.28125v0.875c0 0.125-0.03125 0.21875-0.09375 0.28125-0.054687 0.0625-0.13281 0.09375-0.23438 0.09375h-0.14062v-0.1875h0.046875c0.050781 0 0.085938-0.015625 0.10938-0.046875 0.019531-0.023438 0.03125-0.070312 0.03125-0.14062zm0-0.35938h0.28125v0.23438h-0.28125z"/>
  </symbol>
  <symbol id="l" overflow="visible">
   <path d="m0.85938-0.875v0.23438c-0.042969-0.019531-0.085937-0.035156-0.125-0.046875-0.03125-0.019531-0.070313-0.03125-0.10938-0.03125-0.085938 0-0.14844 0.027344-0.1875 0.078125-0.042969 0.042969-0.0625 0.10547-0.0625 0.1875 0 0.085937 0.019531 0.15234 0.0625 0.20312 0.039062 0.042969 0.10156 0.0625 0.1875 0.0625 0.039062 0 0.082031-0.003906 0.125-0.015625 0.039062-0.007813 0.078125-0.03125 0.10938-0.0625v0.23438c-0.042969 0.023438-0.089844 0.03125-0.14062 0.03125-0.042969 0.0078125-0.085938 0.015625-0.125 0.015625-0.16797 0-0.29688-0.035156-0.39062-0.10938-0.085937-0.082031-0.125-0.20312-0.125-0.35938 0-0.14453 0.039063-0.25781 0.125-0.34375 0.09375-0.082031 0.22266-0.125 0.39062-0.125 0.039062 0 0.082031 0.007813 0.125 0.015625 0.050781 0.011719 0.097656 0.023438 0.14062 0.03125z"/>
  </symbol>
 </defs>
 <g>
  <path d="m618.19 560h-357.59c-3.6094 0-6.5625-2.9531-6.5625-6.5625v-418.61c0-3.6094 2.9531-6.5625 6.5625-6.5625h357.59c3.6094 0 6.5625 2.9531 6.5625 6.5625v418.61c0 3.6094-2.9531 6.5625-6.5625 6.5625zm-351.02-13.121h344.46v-405.48h-344.46z" fill-rule="evenodd"/>
  <path d="m260.6 431.4h-178.79c-3.6094 0-6.5625-2.9531-6.5625-6.5625v-418.28c0-3.6094 2.9531-6.5625 6.5625-6.5625h357.59c3.6094 0 6.5625 2.9531 6.5625 6.5625v128.27c0 3.6094-2.9531 6.5625-6.5625 6.5625h-172.23v283.45c0 3.6094-2.9531 6.5625-6.5625 6.5625zm-172.23-13.121h165.67v-283.45c0-3.6094 2.9531-6.5625 6.5625-6.5625h172.23v-115.15h-344.46z" fill-rule="evenodd"/>
  <path d="m260.6 141.39c-1.9688 0-3.9375-0.98438-5.25-2.625-2.2969-2.9531-1.6406-6.8906 1.3125-9.1875l178.79-128.27c2.9531-2.2969 7.2188-1.6406 9.1875 1.3125s1.3125 7.2188-1.6406 9.1875l-178.46 128.6c-1.3125 0.65625-2.625 0.98438-3.9375 0.98438z" fill-rule="evenodd"/>
  <path d="m563.73 358.24h-248.67c-3.6094 0-6.5625-2.9531-6.5625-6.5625v-165.02c0-3.6094 2.9531-6.5625 6.5625-6.5625h248.67c3.6094 0 6.5625 2.9531 6.5625 6.5625v165.02c0 3.6094-2.9531 6.5625-6.5625 6.5625zm-242.11-13.121h235.55v-151.89h-235.55z" fill-rule="evenodd"/>
  <path d="m563.73 358.24c-1.6406 0-3.6094-0.65625-4.9219-1.9688l-78.078-86.281-58.723 85.625c-1.3125 1.6406-3.2812 2.9531-5.9062 2.625-2.2969 0-4.2656-1.3125-5.25-3.2812l-31.492-58.395-59.707 60.035c-2.625 2.2969-6.8906 2.2969-9.5156 0-2.2969-2.625-2.2969-6.8906 0-9.5156l66.27-65.941c1.3125-1.6406 3.6094-2.2969 5.5781-1.9688s3.9375 1.6406 4.9219 3.6094l30.508 56.426 57.082-83.656c1.3125-1.6406 3.2812-2.625 5.25-2.9531 1.9688 0 3.9375 0.65625 5.25 2.2969l83.656 92.512c2.2969 2.625 2.2969 6.8906-0.65625 9.1875-0.98438 1.3125-2.625 1.6406-4.2656 1.6406z" fill-rule="evenodd"/>
  <path d="m423.98 288.04c-18.371 0-33.133-15.09-33.133-33.133s14.762-32.805 33.133-32.805c18.043 0 32.805 14.762 32.805 32.805s-14.762 33.133-32.805 33.133zm0-52.816c-10.824 0-20.012 8.8594-20.012 19.684s8.8594 20.012 20.012 20.012c10.824 0 19.684-9.1875 19.684-20.012s-8.8594-19.684-19.684-19.684z" fill-rule="evenodd"/>
  <path d="m522.07 312.31c-0.32812 0-0.65625-0.32812-0.98438-0.32812l-68.238-7.5469c-3.6094-0.32812-6.2344-3.6094-5.5781-7.2188 0.32812-3.6094 3.6094-6.2344 7.2188-5.9062l68.238 7.875c3.6094 0.32812 6.2344 3.6094 5.5781 7.2188-0.32812 3.2812-2.9531 5.9062-6.2344 5.9062z" fill-rule="evenodd"/>
  <path d="m534.86 409.75h-191.26c-3.6094 0-6.5625-2.9531-6.5625-6.5625s2.9531-6.5625 6.5625-6.5625h191.26c3.9375 0 6.5625 2.9531 6.5625 6.5625s-2.625 6.5625-6.5625 6.5625z" fill-rule="evenodd"/>
  <path d="m534.86 458.96h-191.26c-3.6094 0-6.5625-2.9531-6.5625-6.5625s2.9531-6.5625 6.5625-6.5625h191.26c3.9375 0 6.5625 2.9531 6.5625 6.5625s-2.625 6.5625-6.5625 6.5625z" fill-rule="evenodd"/>
  <path d="m534.86 508.17h-191.26c-3.6094 0-6.5625-2.9531-6.5625-6.5625s2.9531-6.5625 6.5625-6.5625h191.26c3.9375 0 6.5625 2.9531 6.5625 6.5625s-2.625 6.5625-6.5625 6.5625z" fill-rule="evenodd"/>
  <path d="m260.6 173.21h-118.43c-3.6094 0-6.5625-2.9531-6.5625-6.5625s2.9531-6.5625 6.5625-6.5625h118.43c3.6094 0 6.5625 2.9531 6.5625 6.5625s-2.9531 6.5625-6.5625 6.5625z" fill-rule="evenodd"/>
  <path d="m260.6 222.43h-118.43c-3.6094 0-6.5625-2.9531-6.5625-6.5625s2.9531-6.5625 6.5625-6.5625h118.43c3.6094 0 6.5625 2.9531 6.5625 6.5625s-2.9531 6.5625-6.5625 6.5625z" fill-rule="evenodd"/>
  <path d="m260.6 271.63h-118.43c-3.6094 0-6.5625-2.9531-6.5625-6.5625 0-3.6094 2.9531-6.5625 6.5625-6.5625h118.43c3.6094 0 6.5625 2.9531 6.5625 6.5625 0 3.6094-2.9531 6.5625-6.5625 6.5625z" fill-rule="evenodd"/>
 </g>
</svg>
