<svg width="36" height="29" viewBox="0 0 36 29" fill="none" xmlns="http://www.w3.org/2000/svg">
<path fill-rule="evenodd" clip-rule="evenodd" d="M35.2502 3.33661L29.3809 26.1179C28.8495 28.1807 26.4515 29.0098 24.7517 27.9582C23.3599 27.0971 20.4653 25.3966 14.786 22.3438C13.6563 21.7365 13.2517 20.1541 14.221 19.0833L17.0494 15.9591L12.4111 18.5007C10.9143 19.3209 9.06347 19.7986 7.15277 19.3997C4.55944 18.8583 2.12461 17.8873 1.38965 17.5818C-0.46057 16.8125 -0.208536 14.3622 1.40399 13.703L32.5433 0.974569C34.0733 0.34917 35.6628 1.73525 35.2502 3.33661ZM2.16073 15.5544C2.07894 15.5878 2.07585 15.7011 2.15744 15.735C2.85618 16.0255 5.15372 16.9392 7.56153 17.4419C8.89297 17.7199 10.2572 17.4003 11.45 16.7467L24.9382 9.35575C25.2349 9.1932 25.5318 9.56942 25.3048 9.82018L15.7037 20.4256C15.6601 20.4738 15.6758 20.5514 15.733 20.5821C21.4315 23.6454 24.3646 25.3669 25.804 26.2574C26.4132 26.6343 27.2655 26.3126 27.4442 25.6189L33.3135 2.83763C33.3155 2.82966 33.3076 2.82277 33.3 2.82588L2.16073 15.5544Z" fill="#eeee"/>
</svg>
